<?xml version="1.0" standalone="no"?>
<!DOCTYPE svg PUBLIC "-//W3C//DTD SVG 20010904//EN"
 "http://www.w3.org/TR/2001/REC-SVG-20010904/DTD/svg10.dtd">
<svg version="1.0" xmlns="http://www.w3.org/2000/svg"
 width="512.000000pt" height="512.000000pt" viewBox="0 0 512.000000 512.000000"
 preserveAspectRatio="xMidYMid meet">
<metadata>
Created by potrace 1.11, written by Peter Selinger 2001-2013
</metadata>
<g transform="translate(0.000000,512.000000) scale(0.100000,-0.100000)"
fill="#000000" stroke="none">
<path d="M430 4573 c-165 -42 -296 -188 -317 -353 -4 -36 -8 -798 -7 -1695 l0
-1630 23 -67 c44 -131 145 -231 279 -276 42 -14 265 -16 2137 -17 1927 -2
2095 -1 2151 15 144 39 253 144 296 283 l21 71 0 1661 0 1660 -22 68 c-41 124
-133 218 -261 269 l-55 22 -2096 1 c-1733 2 -2105 -1 -2149 -12z m4246 -221
c52 -27 100 -81 113 -129 7 -23 11 -169 11 -370 l0 -333 -2240 0 -2240 0 0
342 c1 370 3 383 58 441 37 39 78 60 132 66 25 4 963 6 2085 5 l2040 -1 41
-21z m124 -2241 c0 -1191 0 -1195 -21 -1238 -30 -61 -91 -111 -148 -119 -25
-4 -965 -7 -2088 -7 -1907 0 -2045 1 -2087 17 -54 21 -111 81 -125 133 -7 26
-11 419 -11 1224 l0 1185 2240 1 2240 0 0 -1196z"/>
<path d="M1552 2973 c-51 -25 -61 -61 -58 -208 3 -197 12 -205 222 -205 l136
0 34 34 34 34 0 136 c0 210 -13 223 -216 223 -87 1 -131 -4 -152 -14z"/>
<path d="M2401 2969 c-46 -28 -53 -51 -54 -188 -3 -208 10 -221 213 -221 206
0 214 9 213 235 l-1 130 -35 31 -36 30 -135 1 c-114 0 -140 -3 -165 -18z"/>
<path d="M3258 2971 c-53 -26 -59 -49 -56 -208 3 -141 3 -143 31 -170 27 -27
30 -28 165 -31 216 -5 226 3 228 204 2 207 -12 221 -213 222 -94 0 -130 -4
-155 -17z"/>
<path d="M4121 2976 c-58 -19 -69 -55 -68 -210 3 -199 11 -206 224 -206 l135
0 34 34 34 34 0 135 c0 75 -4 147 -10 161 -19 50 -52 61 -190 62 -71 1 -140
-3 -159 -10z"/>
<path d="M674 2206 l-34 -34 0 -136 c0 -213 13 -225 225 -222 194 3 204 15
201 222 -2 197 -10 204 -223 204 l-135 0 -34 -34z"/>
<path d="M1538 2219 c-39 -29 -47 -68 -45 -209 4 -189 14 -198 222 -196 199 3
208 13 203 228 l-3 140 -33 29 -32 29 -143 0 c-126 -1 -145 -3 -169 -21z"/>
<path d="M2387 2216 c-33 -29 -40 -60 -40 -171 1 -172 0 -165 37 -200 l34 -31
138 0 c206 2 216 11 217 204 1 212 -10 224 -222 221 -127 -1 -140 -3 -164 -23z"/>
<path d="M3234 2206 l-34 -34 0 -136 c0 -210 8 -219 205 -222 209 -3 224 12
221 221 -3 196 -12 205 -222 205 l-136 0 -34 -34z"/>
<path d="M4113 2230 c-13 -5 -31 -23 -42 -40 -16 -27 -18 -50 -17 -168 2 -197
15 -210 206 -210 207 0 220 13 220 220 l0 138 -29 32 -29 33 -144 2 c-78 1
-153 -2 -165 -7z"/>
<path d="M698 1481 c-49 -24 -58 -55 -58 -201 0 -203 11 -214 215 -213 203 1
213 12 211 226 l-1 139 -33 29 c-18 16 -42 29 -55 30 -140 6 -254 2 -279 -10z"/>
<path d="M1593 1489 c-85 -11 -101 -45 -99 -214 2 -195 13 -207 198 -208 155
-1 182 5 208 47 17 29 20 50 20 165 0 149 -9 180 -61 201 -33 14 -191 19 -266
9z"/>
<path d="M2435 1489 c-45 -8 -84 -47 -86 -87 -1 -15 -1 -79 -1 -143 0 -181 12
-192 205 -192 73 0 142 3 154 7 13 4 32 21 44 37 19 27 22 44 22 157 1 153 -4
174 -44 203 -27 19 -45 22 -143 23 -62 0 -130 -2 -151 -5z"/>
</g>
</svg>
